<svg xmlns="http://www.w3.org/2000/svg" version="1.1" xmlns:xlink="http://www.w3.org/1999/xlink" xmlns:svgjs="http://svgjs.dev/svgjs" width="1000" height="1000"><g clip-path="url(#SvgjsClipPath1110)"><rect width="1000" height="1000" fill="#ffffff"></rect><g transform="matrix(1.2307692307692308,0,0,1.2307692307692308,100,100)"><svg xmlns="http://www.w3.org/2000/svg" version="1.1" xmlns:xlink="http://www.w3.org/1999/xlink" xmlns:svgjs="http://svgjs.dev/svgjs" width="650" height="650"><svg width="650" height="650" viewBox="0 0 650 650" fill="none" xmlns="http://www.w3.org/2000/svg">
<rect width="650" height="650" rx="325" fill="#111827"></rect>
<path d="M193.804 228.5V181.955H205.054V219.364H224.418V228.5H193.804ZM246.56 229.159C242.908 229.159 239.757 228.439 237.105 227C234.469 225.545 232.438 223.477 231.014 220.795C229.605 218.098 228.901 214.894 228.901 211.182C228.901 207.576 229.613 204.424 231.037 201.727C232.461 199.015 234.469 196.909 237.06 195.409C239.651 193.894 242.704 193.136 246.219 193.136C248.704 193.136 250.976 193.523 253.037 194.295C255.098 195.068 256.878 196.212 258.378 197.727C259.878 199.242 261.045 201.114 261.878 203.341C262.711 205.553 263.128 208.091 263.128 210.955V213.727H232.787V207.273H252.787C252.772 206.091 252.491 205.038 251.946 204.114C251.401 203.189 250.651 202.47 249.696 201.955C248.757 201.424 247.673 201.159 246.446 201.159C245.204 201.159 244.09 201.439 243.105 202C242.12 202.545 241.34 203.295 240.764 204.25C240.188 205.189 239.885 206.258 239.855 207.455V214.023C239.855 215.447 240.135 216.697 240.696 217.773C241.257 218.833 242.052 219.659 243.082 220.25C244.113 220.841 245.34 221.136 246.764 221.136C247.749 221.136 248.643 221 249.446 220.727C250.249 220.455 250.938 220.053 251.514 219.523C252.09 218.992 252.522 218.341 252.81 217.568L263.014 217.864C262.59 220.152 261.658 222.144 260.219 223.841C258.795 225.523 256.923 226.833 254.605 227.773C252.287 228.697 249.605 229.159 246.56 229.159ZM288.509 193.591V201.773H266.486V193.591H288.509ZM271.099 185.227H282.213V217.523C282.213 218.205 282.319 218.758 282.531 219.182C282.759 219.591 283.084 219.886 283.509 220.068C283.933 220.235 284.44 220.318 285.031 220.318C285.455 220.318 285.902 220.28 286.372 220.205C286.857 220.114 287.221 220.038 287.463 219.977L289.145 228C288.615 228.152 287.865 228.341 286.895 228.568C285.94 228.795 284.796 228.939 283.463 229C280.857 229.121 278.622 228.818 276.759 228.091C274.91 227.348 273.493 226.197 272.509 224.636C271.539 223.076 271.069 221.114 271.099 218.75V185.227ZM313.884 193.591V201.773H291.861V193.591H313.884ZM296.474 185.227H307.588V217.523C307.588 218.205 307.694 218.758 307.906 219.182C308.134 219.591 308.459 219.886 308.884 220.068C309.308 220.235 309.815 220.318 310.406 220.318C310.83 220.318 311.277 220.28 311.747 220.205C312.232 220.114 312.596 220.038 312.838 219.977L314.52 228C313.99 228.152 313.24 228.341 312.27 228.568C311.315 228.795 310.171 228.939 308.838 229C306.232 229.121 303.997 228.818 302.134 228.091C300.285 227.348 298.868 226.197 297.884 224.636C296.914 223.076 296.444 221.114 296.474 218.75V185.227ZM335.497 229.159C331.846 229.159 328.694 228.439 326.043 227C323.406 225.545 321.376 223.477 319.952 220.795C318.543 218.098 317.838 214.894 317.838 211.182C317.838 207.576 318.55 204.424 319.974 201.727C321.399 199.015 323.406 196.909 325.997 195.409C328.588 193.894 331.641 193.136 335.156 193.136C337.641 193.136 339.914 193.523 341.974 194.295C344.035 195.068 345.815 196.212 347.315 197.727C348.815 199.242 349.982 201.114 350.815 203.341C351.649 205.553 352.065 208.091 352.065 210.955V213.727H321.724V207.273H341.724C341.709 206.091 341.429 205.038 340.884 204.114C340.338 203.189 339.588 202.47 338.634 201.955C337.694 201.424 336.611 201.159 335.384 201.159C334.141 201.159 333.027 201.439 332.043 202C331.058 202.545 330.277 203.295 329.702 204.25C329.126 205.189 328.823 206.258 328.793 207.455V214.023C328.793 215.447 329.073 216.697 329.634 217.773C330.194 218.833 330.99 219.659 332.02 220.25C333.05 220.841 334.277 221.136 335.702 221.136C336.687 221.136 337.58 221 338.384 220.727C339.187 220.455 339.876 220.053 340.452 219.523C341.027 218.992 341.459 218.341 341.747 217.568L351.952 217.864C351.527 220.152 350.596 222.144 349.156 223.841C347.732 225.523 345.861 226.833 343.543 227.773C341.224 228.697 338.543 229.159 335.497 229.159ZM357.741 228.5V193.591H368.537V199.955H368.901C369.537 197.652 370.575 195.939 372.014 194.818C373.454 193.682 375.128 193.114 377.037 193.114C377.552 193.114 378.082 193.152 378.628 193.227C379.173 193.288 379.681 193.386 380.151 193.523V203.182C379.62 203 378.923 202.856 378.06 202.75C377.211 202.644 376.454 202.591 375.787 202.591C374.469 202.591 373.279 202.886 372.219 203.477C371.173 204.053 370.348 204.864 369.741 205.909C369.151 206.939 368.855 208.152 368.855 209.545V228.5H357.741ZM414.724 229.159C411.058 229.159 407.906 228.409 405.27 226.909C402.649 225.394 400.626 223.288 399.202 220.591C397.793 217.879 397.088 214.735 397.088 211.159C397.088 207.568 397.793 204.424 399.202 201.727C400.626 199.015 402.649 196.909 405.27 195.409C407.906 193.894 411.058 193.136 414.724 193.136C418.391 193.136 421.535 193.894 424.156 195.409C426.793 196.909 428.815 199.015 430.224 201.727C431.649 204.424 432.361 207.568 432.361 211.159C432.361 214.735 431.649 217.879 430.224 220.591C428.815 223.288 426.793 225.394 424.156 226.909C421.535 228.409 418.391 229.159 414.724 229.159ZM414.793 220.773C416.126 220.773 417.255 220.364 418.179 219.545C419.103 218.727 419.808 217.591 420.293 216.136C420.793 214.682 421.043 213 421.043 211.091C421.043 209.152 420.793 207.455 420.293 206C419.808 204.545 419.103 203.409 418.179 202.591C417.255 201.773 416.126 201.364 414.793 201.364C413.414 201.364 412.247 201.773 411.293 202.591C410.353 203.409 409.634 204.545 409.134 206C408.649 207.455 408.406 209.152 408.406 211.091C408.406 213 408.649 214.682 409.134 216.136C409.634 217.591 410.353 218.727 411.293 219.545C412.247 220.364 413.414 220.773 414.793 220.773ZM457.895 193.591V201.773H435.44V193.591H457.895ZM440.122 228.5V191.818C440.122 189.121 440.63 186.886 441.645 185.114C442.66 183.326 444.069 181.992 445.872 181.114C447.675 180.22 449.759 179.773 452.122 179.773C453.668 179.773 455.122 179.894 456.486 180.136C457.865 180.364 458.887 180.568 459.554 180.75L457.781 188.886C457.372 188.75 456.872 188.636 456.281 188.545C455.705 188.455 455.16 188.409 454.645 188.409C453.342 188.409 452.448 188.697 451.963 189.273C451.478 189.848 451.236 190.636 451.236 191.636V228.5H440.122Z" fill="#F9FAFB"></path>
<path d="M206.398 300.955V347.5H195.148V300.955H206.398ZM224.574 327.591V347.5H213.46V312.591H224.028V319H224.415C225.188 316.864 226.506 315.189 228.369 313.977C230.233 312.75 232.453 312.136 235.028 312.136C237.483 312.136 239.612 312.689 241.415 313.795C243.233 314.886 244.642 316.417 245.642 318.386C246.657 320.341 247.157 322.629 247.142 325.25V347.5H236.028V327.432C236.044 325.492 235.551 323.977 234.551 322.886C233.566 321.795 232.195 321.25 230.438 321.25C229.271 321.25 228.241 321.508 227.347 322.023C226.468 322.523 225.786 323.242 225.301 324.182C224.831 325.121 224.589 326.258 224.574 327.591ZM273.727 312.591V320.773H251.705V312.591H273.727ZM256.318 304.227H267.432V336.523C267.432 337.205 267.538 337.758 267.75 338.182C267.977 338.591 268.303 338.886 268.727 339.068C269.152 339.235 269.659 339.318 270.25 339.318C270.674 339.318 271.121 339.28 271.591 339.205C272.076 339.114 272.439 339.038 272.682 338.977L274.364 347C273.833 347.152 273.083 347.341 272.114 347.568C271.159 347.795 270.015 347.939 268.682 348C266.076 348.121 263.841 347.818 261.977 347.091C260.129 346.348 258.712 345.197 257.727 343.636C256.758 342.076 256.288 340.114 256.318 337.75V304.227ZM295.341 348.159C291.689 348.159 288.538 347.439 285.886 346C283.25 344.545 281.22 342.477 279.795 339.795C278.386 337.098 277.682 333.894 277.682 330.182C277.682 326.576 278.394 323.424 279.818 320.727C281.242 318.015 283.25 315.909 285.841 314.409C288.432 312.894 291.485 312.136 295 312.136C297.485 312.136 299.758 312.523 301.818 313.295C303.879 314.068 305.659 315.212 307.159 316.727C308.659 318.242 309.826 320.114 310.659 322.341C311.492 324.553 311.909 327.091 311.909 329.955V332.727H281.568V326.273H301.568C301.553 325.091 301.273 324.038 300.727 323.114C300.182 322.189 299.432 321.47 298.477 320.955C297.538 320.424 296.455 320.159 295.227 320.159C293.985 320.159 292.871 320.439 291.886 321C290.902 321.545 290.121 322.295 289.545 323.25C288.97 324.189 288.667 325.258 288.636 326.455V333.023C288.636 334.447 288.917 335.697 289.477 336.773C290.038 337.833 290.833 338.659 291.864 339.25C292.894 339.841 294.121 340.136 295.545 340.136C296.53 340.136 297.424 340 298.227 339.727C299.03 339.455 299.72 339.053 300.295 338.523C300.871 337.992 301.303 337.341 301.591 336.568L311.795 336.864C311.371 339.152 310.439 341.144 309 342.841C307.576 344.523 305.705 345.833 303.386 346.773C301.068 347.697 298.386 348.159 295.341 348.159ZM328.699 327.591V347.5H317.585V312.591H328.153V319H328.54C329.313 316.864 330.631 315.189 332.494 313.977C334.358 312.75 336.578 312.136 339.153 312.136C341.608 312.136 343.737 312.689 345.54 313.795C347.358 314.886 348.767 316.417 349.767 318.386C350.782 320.341 351.282 322.629 351.267 325.25V347.5H340.153V327.432C340.169 325.492 339.676 323.977 338.676 322.886C337.691 321.795 336.32 321.25 334.562 321.25C333.396 321.25 332.366 321.508 331.472 322.023C330.593 322.523 329.911 323.242 329.426 324.182C328.956 325.121 328.714 326.258 328.699 327.591ZM377.852 312.591V320.773H355.83V312.591H377.852ZM360.443 304.227H371.557V336.523C371.557 337.205 371.663 337.758 371.875 338.182C372.102 338.591 372.428 338.886 372.852 339.068C373.277 339.235 373.784 339.318 374.375 339.318C374.799 339.318 375.246 339.28 375.716 339.205C376.201 339.114 376.564 339.038 376.807 338.977L378.489 347C377.958 347.152 377.208 347.341 376.239 347.568C375.284 347.795 374.14 347.939 372.807 348C370.201 348.121 367.966 347.818 366.102 347.091C364.254 346.348 362.837 345.197 361.852 343.636C360.883 342.076 360.413 340.114 360.443 337.75V304.227ZM416.977 312.591V320.773H394.955V312.591H416.977ZM399.568 304.227H410.682V336.523C410.682 337.205 410.788 337.758 411 338.182C411.227 338.591 411.553 338.886 411.977 339.068C412.402 339.235 412.909 339.318 413.5 339.318C413.924 339.318 414.371 339.28 414.841 339.205C415.326 339.114 415.689 339.038 415.932 338.977L417.614 347C417.083 347.152 416.333 347.341 415.364 347.568C414.409 347.795 413.265 347.939 411.932 348C409.326 348.121 407.091 347.818 405.227 347.091C403.379 346.348 401.962 345.197 400.977 343.636C400.008 342.076 399.538 340.114 399.568 337.75V304.227ZM438.568 348.159C434.902 348.159 431.75 347.409 429.114 345.909C426.492 344.394 424.47 342.288 423.045 339.591C421.636 336.879 420.932 333.735 420.932 330.159C420.932 326.568 421.636 323.424 423.045 320.727C424.47 318.015 426.492 315.909 429.114 314.409C431.75 312.894 434.902 312.136 438.568 312.136C442.235 312.136 445.379 312.894 448 314.409C450.636 315.909 452.659 318.015 454.068 320.727C455.492 323.424 456.205 326.568 456.205 330.159C456.205 333.735 455.492 336.879 454.068 339.591C452.659 342.288 450.636 344.394 448 345.909C445.379 347.409 442.235 348.159 438.568 348.159ZM438.636 339.773C439.97 339.773 441.098 339.364 442.023 338.545C442.947 337.727 443.652 336.591 444.136 335.136C444.636 333.682 444.886 332 444.886 330.091C444.886 328.152 444.636 326.455 444.136 325C443.652 323.545 442.947 322.409 442.023 321.591C441.098 320.773 439.97 320.364 438.636 320.364C437.258 320.364 436.091 320.773 435.136 321.591C434.197 322.409 433.477 323.545 432.977 325C432.492 326.455 432.25 328.152 432.25 330.091C432.25 332 432.492 333.682 432.977 335.136C433.477 336.591 434.197 337.727 435.136 338.545C436.091 339.364 437.258 339.773 438.636 339.773Z" fill="#F9FAFB"></path>
<path d="M233.71 419.955H247.642L259.46 448.773H260.006L271.824 419.955H285.756V466.5H274.801V437.909H274.415L263.233 466.205H256.233L245.051 437.75H244.665V466.5H233.71V419.955ZM302.614 467.091C300.386 467.091 298.409 466.72 296.682 465.977C294.97 465.22 293.614 464.083 292.614 462.568C291.629 461.038 291.136 459.121 291.136 456.818C291.136 454.879 291.477 453.242 292.159 451.909C292.841 450.576 293.78 449.492 294.977 448.659C296.174 447.826 297.553 447.197 299.114 446.773C300.674 446.333 302.341 446.038 304.114 445.886C306.098 445.705 307.697 445.515 308.909 445.318C310.121 445.106 311 444.811 311.545 444.432C312.106 444.038 312.386 443.485 312.386 442.773V442.659C312.386 441.492 311.985 440.591 311.182 439.955C310.379 439.318 309.295 439 307.932 439C306.462 439 305.28 439.318 304.386 439.955C303.492 440.591 302.924 441.47 302.682 442.591L292.432 442.227C292.735 440.106 293.515 438.212 294.773 436.545C296.045 434.864 297.788 433.545 300 432.591C302.227 431.621 304.902 431.136 308.023 431.136C310.25 431.136 312.303 431.402 314.182 431.932C316.061 432.447 317.697 433.205 319.091 434.205C320.485 435.189 321.561 436.402 322.318 437.841C323.091 439.28 323.477 440.924 323.477 442.773V466.5H313.023V461.636H312.75C312.129 462.818 311.333 463.818 310.364 464.636C309.409 465.455 308.28 466.068 306.977 466.477C305.689 466.886 304.235 467.091 302.614 467.091ZM306.045 459.818C307.242 459.818 308.318 459.576 309.273 459.091C310.242 458.606 311.015 457.939 311.591 457.091C312.167 456.227 312.455 455.227 312.455 454.091V450.773C312.136 450.939 311.75 451.091 311.295 451.227C310.856 451.364 310.371 451.492 309.841 451.614C309.311 451.735 308.765 451.841 308.205 451.932C307.644 452.023 307.106 452.106 306.591 452.182C305.545 452.348 304.652 452.606 303.909 452.955C303.182 453.303 302.621 453.758 302.227 454.318C301.848 454.864 301.659 455.515 301.659 456.273C301.659 457.424 302.068 458.303 302.886 458.909C303.72 459.515 304.773 459.818 306.045 459.818ZM330.273 466.5V431.591H341.068V437.955H341.432C342.068 435.652 343.106 433.939 344.545 432.818C345.985 431.682 347.659 431.114 349.568 431.114C350.083 431.114 350.614 431.152 351.159 431.227C351.705 431.288 352.212 431.386 352.682 431.523V441.182C352.152 441 351.455 440.856 350.591 440.75C349.742 440.644 348.985 440.591 348.318 440.591C347 440.591 345.811 440.886 344.75 441.477C343.705 442.053 342.879 442.864 342.273 443.909C341.682 444.939 341.386 446.152 341.386 447.545V466.5H330.273ZM357.21 466.5V431.591H368.006V437.955H368.369C369.006 435.652 370.044 433.939 371.483 432.818C372.922 431.682 374.597 431.114 376.506 431.114C377.021 431.114 377.551 431.152 378.097 431.227C378.642 431.288 379.15 431.386 379.619 431.523V441.182C379.089 441 378.392 440.856 377.528 440.75C376.68 440.644 375.922 440.591 375.256 440.591C373.938 440.591 372.748 440.886 371.688 441.477C370.642 442.053 369.816 442.864 369.21 443.909C368.619 444.939 368.324 446.152 368.324 447.545V466.5H357.21ZM392.006 479.591C390.672 479.591 389.415 479.485 388.233 479.273C387.051 479.076 386.036 478.811 385.188 478.477L387.642 470.409C388.733 470.773 389.718 470.985 390.597 471.045C391.491 471.106 392.256 470.962 392.892 470.614C393.544 470.28 394.044 469.682 394.392 468.818L394.824 467.773L382.415 431.591H394.051L400.483 456.5H400.847L407.369 431.591H419.074L405.915 469.841C405.278 471.75 404.377 473.432 403.21 474.886C402.059 476.356 400.566 477.508 398.733 478.341C396.915 479.174 394.672 479.591 392.006 479.591Z" fill="#F9FAFB"></path>
</svg></svg></g></g><defs><clipPath id="SvgjsClipPath1110"><rect width="1000" height="1000" x="0" y="0" rx="500" ry="500"></rect></clipPath></defs></svg>